<?xml version="1.0" encoding="utf-8"?>
<!-- Generator: Adobe Illustrator 25.4.1, SVG Export Plug-In . SVG Version: 6.00 Build 0)  -->
<svg version="1.1" id="Layer_1" xmlns="http://www.w3.org/2000/svg" xmlns:xlink="http://www.w3.org/1999/xlink" x="0px" y="0px"
	 viewBox="0 0 68 68" style="enable-background:new 0 0 68 68;" xml:space="preserve">
<style type="text/css">
	.st0{fill:none;stroke:#00DCF0;stroke-width:0.2835;stroke-linecap:round;stroke-linejoin:round;stroke-miterlimit:10;}
	.st1{fill:none;stroke:#000000;stroke-width:0.2835;stroke-linecap:round;stroke-linejoin:round;stroke-miterlimit:10;}
	.st2{fill:none;stroke:#F00000;stroke-width:0.2835;stroke-linecap:round;stroke-linejoin:round;stroke-miterlimit:10;}
</style>
<rect x="-8.5" y="-8.5" class="st0" width="85" height="85"/>
<circle class="st0" cx="34" cy="34" r="34"/>
<path id="scleraBack" class="st0" d="M34,0.5C15.4,0.5,0.5,15.4,0.5,34S15.4,67.6,34,67.6S67.6,52.6,67.6,34S52.6,0.5,34,0.5"/>
<path id="scleraFront" class="st0" d="M34,2.4c17.4,0,31.6,14.1,31.6,31.6S51.4,65.6,34,65.6S2.4,51.4,2.4,34S16.5,2.4,34,2.4"/>
<path id="iris" class="st1" d="M34,1.1c18.2,0,32.9,14.7,32.9,32.9S52.2,66.9,34,66.9S1.1,52.2,1.1,34S15.8,1.1,34,1.1"/>
<path id="pupilMax" class="st1" d="M34,28c3.4,0,6,2.7,6,6s-2.7,6.1-6,6.1s-6-2.7-6-6.1S30.7,28,34,28"/>
<path id="pupilMin" class="st1" d="M34,31.2c1.6,0,2.8,1.3,2.8,2.8c0,1.6-1.3,2.8-2.8,2.8c-1.6,0-2.8-1.3-2.8-2.8S32.5,31.2,34,31.2
	"/>
<path id="lowerLidEdge" class="st2" d="M72.7,31.6c0.1,0.8,0.1,1.6,0.1,2.4c0,21.4-17.3,38.7-38.7,38.7c-17.7,0-30.3,2.1-34.9-14.1"
	/>
<path id="lowerLidClosed" class="st2" d="M63.7,30.3c0.3,4.4-3.2,2.4-7.3,4.3c-10.4,5-23.7,8.2-36.3,9.8
	c-11.6,1.2-5.5,9.8-11.8,11.9c-3.9,1.3-3.4,1.6-3.6,2.2"/>
<path id="lowerLidOpen" class="st2" d="M63.7,31.7c1,12.4,0.2,22.6-7.3,28.6c-11.1,8.8-23.4,6.4-31.9,3.3c-13.7-5.3-12.5-1-16.7-1.9
	c-2-0.4-3.1-1.1-3.2-3.1"/>
<path id="upperLidEdge" class="st2" d="M-1.2,56.4c-0.7-3-3.5-19.2-3.5-22.4C-4.7,12.6,12.6-4.7,34-4.7c20.1,0,36.6,15.2,38.5,34.8"
	/>
<path id="upperLidClosed" class="st2" d="M63.7,31.7c-0.2,5.5,0.4,1.7-17.9,8.4c-14.1,4.9-23.7,4-30,6.7c-4.7,1.6-2,10-7.6,10.7
	c-2,0.2-2.6-0.2-2.8-1.1"/>
<path id="upperLidOpen" class="st2" d="M63.7,30.3C62.1,18.6,52.2,7.7,43.4,4.9C35.1,2.8,26,2.1,15,11.4c-6.7,5.2-6.4,9.3-9.2,17.3
	c-1.2,3.7-0.2,19.8-0.5,27.7"/>
</svg>
